<?xml version="1.0" encoding="UTF-8"?>
<!DOCTYPE svg PUBLIC "-//W3C//DTD SVG 1.1//EN" "http://www.w3.org/Graphics/SVG/1.1/DTD/svg11.dtd">
<!-- Creator: CorelDRAW -->
<svg xmlns="http://www.w3.org/2000/svg" xml:space="preserve" width="210mm" height="297mm" version="1.1" style="shape-rendering:geometricPrecision; text-rendering:geometricPrecision; image-rendering:optimizeQuality; fill-rule:evenodd; clip-rule:evenodd"
viewBox="0 0 21000 29700"
 xmlns:xlink="http://www.w3.org/1999/xlink"
 xmlns:xodm="http://www.corel.com/coreldraw/odm/2003">
 <defs>
  <style type="text/css">
   <![CDATA[
    .fil0 {fill:black;fill-rule:nonzero}
   ]]>
  </style>
 </defs>
 <g id="Capa_x0020_1">
  <metadata id="CorelCorpID_0Corel-Layer"/>
  <path class="fil0" d="M3234.98 5187.95l-481.17 1905.21c112.35,14.67 203.95,22 272.33,22 103.82,0 232.06,-19.55 385.94,-58.64l-35.42 175.87c-159.98,34.19 -283.34,51.29 -372.49,51.29 -92.83,0 -229.61,-8.54 -410.36,-25.63 -159.99,-17.1 -291.89,-25.66 -396.91,-25.66 -190.53,0 -410.36,26.88 -660.72,80.62l53.74 -197.85c261.34,-67.18 431.11,-133.13 509.27,-196.65 118.46,-102.59 210.07,-283.32 274.79,-541.01l500.74 -2000.49c62.27,-257.69 94.03,-409.14 94.03,-455.54 0,-42.75 -15.89,-75.71 -45.2,-96.48 -30.53,-21.98 -89.15,-31.74 -177.07,-29.31l46.4 -168.54c241.82,-2.43 531.27,-46.41 869.56,-131.9 -28.08,90.38 -65.95,224.73 -111.13,403.03l-267.47 1062.53c114.8,19.54 211.28,29.3 289.45,29.3 296.78,0 552.02,-103.81 763.31,-312.65 211.29,-208.84 317.54,-456.77 317.54,-742.54 0,-222.28 -85.5,-404.26 -255.27,-547.14 -170.97,-142.89 -403.01,-214.95 -696.13,-214.95 -373.7,0 -740.09,90.38 -1097.93,272.36 -356.62,180.73 -625.3,406.69 -803.61,674.14 -179.54,268.68 -268.7,549.57 -268.7,843.91 0,222.27 91.61,412.81 273.59,572.79 92.8,78.17 148.99,135.56 170.97,172.2 20.77,35.41 31.76,73.28 31.76,114.8 0,50.08 -18.32,92.83 -54.97,130.68 -37.86,36.64 -81.81,54.96 -134.32,54.96 -128.25,0 -243.05,-75.71 -343.19,-225.93 -128.25,-195.42 -192.97,-437.22 -192.97,-723.02 0,-368.82 101.37,-710.78 304.1,-1028.32 202.73,-317.53 510.5,-581.33 922.07,-788.96 410.36,-207.61 843.92,-311.43 1300.69,-311.43 423.78,0 773.07,80.61 1047.86,240.6 274.79,160 411.57,395.69 411.57,708.35 0,294.33 -125.79,567.89 -377.38,820.7 -251.58,252.81 -597.2,415.25 -1038.1,487.3 109.92,218.6 179.53,366.39 210.06,443.33 50.08,128.24 125.8,344.41 228.39,649.74 240.59,714.45 490.95,1217.62 748.65,1509.51 190.51,213.71 396.92,321.19 619.2,321.19 229.6,0 376.15,-103.8 440.87,-308.98 37.87,-130.67 73.28,-211.29 107.49,-243.05 45.18,-42.73 96.47,-63.5 153.88,-63.5 57.39,0 105.02,20.77 145.34,61.07 39.07,40.3 58.62,89.15 58.62,146.54 0,146.57 -80.62,287.03 -243.05,420.13 -162.43,133.12 -371.27,200.3 -626.51,200.3 -232.04,0 -453.11,-56.19 -664.38,-167.32 -211.29,-112.35 -417.7,-294.33 -616.75,-549.59 -199.07,-254.02 -372.5,-559.34 -520.29,-914.74 -74.48,-179.53 -183.18,-506.82 -326.07,-983.14 -85.49,-290.67 -139.23,-464.09 -160,-521.49l-85.48 -7.33c-20.77,0 -51.3,2.45 -89.17,7.33zm4248.89 1143.12l117.25 153.9c-583.78,556.91 -1083.3,835.35 -1500.97,835.35 -168.54,0 -297.99,-57.39 -387.14,-170.97 -89.17,-114.81 -134.35,-297.99 -134.35,-549.6 0,-509.27 155.1,-1014.87 465.3,-1519.27 348.07,-572.79 763.31,-859.8 1248.16,-859.8 168.54,0 298.01,42.75 387.16,127.02 89.16,84.27 134.33,200.3 134.33,348.07 0,155.1 -53.73,306.55 -161.2,456.77 -107.48,150.22 -299.22,306.54 -575.23,467.75 -139.23,78.17 -434.77,219.83 -887.88,425.01 -20.75,128.24 -31.76,250.36 -31.76,367.61 0,168.54 26.88,287 80.61,352.95 53.74,67.18 131.9,100.14 234.49,100.14 97.71,0 203.96,-28.08 321.19,-83.04 157.56,-73.28 387.17,-224.73 690.04,-451.89zm-1251.82 -512.93c383.48,-170.99 671.71,-355.4 864.67,-552.02 130.68,-138.01 196.63,-274.79 196.63,-410.37 0,-101.36 -26.86,-183.18 -80.6,-244.25 -53.75,-59.84 -123.36,-90.38 -208.85,-90.38 -87.93,0 -173.42,32.99 -256.47,100.14 -112.35,87.95 -206.39,221.08 -282.12,398.15 -109.92,261.35 -188.06,527.6 -233.26,798.73zm1968.72 -747.44l-124.56 -124.57c307.75,-291.88 553.25,-486.07 736.43,-581.33 181.98,-96.49 338.31,-144.12 467.76,-144.12 51.28,0 90.37,10.99 119.68,31.76 28.09,20.76 42.75,45.18 42.75,74.51 0,20.75 -6.11,58.62 -17.09,112.36l-162.44 719.34c241.82,-269.91 545.92,-521.5 912.31,-755.99 194.17,-120.91 354.17,-181.98 479.97,-181.98 92.8,0 166.09,29.31 217.37,87.95 52.53,58.62 79.39,144.11 79.39,254.02 0,74.5 -10.99,157.55 -32.96,250.36 -37.87,155.12 -136.81,493.4 -298.01,1013.67 -151.43,486.07 -227.16,809.72 -227.16,969.72 0,50.06 7.33,87.92 20.77,112.35 14.64,25.66 35.42,37.87 61.07,37.87 69.6,0 178.3,-67.18 326.07,-201.53 105.04,-96.48 210.06,-185.63 315.1,-267.45l80.6 131.9c-218.6,241.82 -444.55,435.99 -679.04,583.78 -150.2,94.04 -272.34,141.66 -370.05,141.66 -90.38,0 -159.98,-32.98 -210.06,-98.93 -50.06,-65.95 -74.49,-173.42 -74.49,-322.42 0,-212.49 133.11,-740.09 398.13,-1585.22 81.84,-300.44 122.14,-475.09 122.14,-525.17 0,-70.83 -43.98,-106.24 -131.9,-106.24 -95.26,0 -218.62,50.06 -368.84,150.22 -224.71,147.77 -411.57,321.19 -561.79,521.49 -95.26,129.45 -175.87,334.63 -239.37,615.52l-290.68 1248.16 -532.48 0c100.16,-357.83 186.86,-699.79 261.37,-1025.88l317.53 -1359.29c12.22,-53.74 18.33,-91.61 18.33,-114.81 0,-62.29 -24.43,-94.03 -72.06,-94.03 -39.09,0 -94.05,24.43 -166.11,74.49 -149,97.71 -288.23,217.39 -417.68,357.83zm5708.32 -909.86l239.37 -48.85 -267.46 904.97c-106.24,360.28 -207.61,775.53 -302.89,1245.73 -52.51,255.25 -78.16,420.13 -78.16,493.39 0,73.28 29.33,109.92 89.17,109.92 36.62,0 97.69,-24.42 179.53,-73.28 146.54,-86.7 287,-194.17 421.33,-322.41l114.81 139.23c-271.14,245.48 -444.56,394.47 -521.49,445.78 -152.65,103.79 -296.77,180.73 -434.77,229.58 -91.61,32.99 -179.53,50.08 -265.03,50.08 -61.07,0 -107.47,-14.66 -139.23,-42.74 -30.53,-28.09 -46.4,-70.83 -46.4,-124.57 0,-35.42 9.76,-84.27 29.3,-146.56l142.89 -481.2c-205.18,245.5 -450.66,455.56 -733.98,631.42 -173.44,108.69 -333.43,163.65 -478.76,163.65 -139.22,0 -244.26,-48.85 -318.74,-146.56 -100.16,-131.9 -150.22,-304.1 -150.22,-516.61 0,-252.79 67.15,-534.91 201.5,-845.13 135.56,-310.2 315.08,-592.32 542.26,-845.13 225.94,-252.79 464.08,-439.65 714.44,-559.34 192.97,-90.38 440.9,-135.58 743.77,-135.58 76.96,0 153.89,4.89 232.06,14.67l86.7 -140.46zm-443.33 553.25c-128.22,-25.65 -236.92,-39.09 -324.87,-39.09 -213.72,0 -400.58,58.64 -560.56,177.1 -160,118.46 -307.77,330.97 -444.55,637.52 -136.78,306.55 -205.18,613.07 -205.18,918.39 0,162.44 26.88,278.47 81.82,350.52 54.96,72.06 127.01,107.47 214.96,107.47 163.64,0 339.51,-89.15 527.6,-266.25 188.06,-178.3 326.07,-434.76 414.02,-768.17l296.76 -1117.49zm2081.08 -1041.75l574.02 -216.17 -251.58 1006.34 729.1 0 -57.39 256.46 -735.23 0 -312.65 1190.77c-102.6,360.27 -152.65,611.87 -152.65,752.31 0,64.72 13.43,111.15 40.29,139.23 28.09,28.08 64.73,42.75 112.36,42.75 74.5,0 186.86,-43.98 339.53,-131.9 199.05,-116.03 389.59,-247.93 570.34,-395.7l136.78 161.21c-522.71,394.47 -870.78,636.29 -1047.88,724.22 -175.85,89.15 -317.53,133.12 -425.01,133.12 -87.92,0 -157.53,-31.76 -208.83,-96.48 -51.29,-64.72 -76.94,-168.54 -76.94,-313.88 0,-172.19 45.18,-433.54 135.55,-786.51l362.74 -1419.14 -580.11 0 64.72 -256.46 581.34 0 201.5 -790.17zm3120.41 548.34c234.49,0 428.66,92.83 583.76,279.69 155.12,185.64 233.29,444.54 233.29,776.74 0,528.82 -186.86,1005.11 -559.36,1426.46 -372.5,421.35 -765.74,631.41 -1182.21,631.41 -255.24,0 -461.65,-83.04 -617.98,-250.36 -156.32,-167.31 -234.49,-395.69 -234.49,-683.92 0,-500.74 142.89,-963.61 429.89,-1388.62 360.28,-527.6 809.72,-791.4 1347.1,-791.4zm-305.32 271.14c-202.73,0 -398.15,145.33 -587.44,434.79 -189.32,289.43 -283.35,690.01 -283.35,1199.3 0,310.21 58.62,554.46 174.65,733.99 85.49,130.67 200.28,196.62 343.19,196.62 199.05,0 381.03,-124.57 545.91,-372.5 208.84,-321.19 313.86,-720.54 313.86,-1198.08 0,-357.83 -47.63,-613.09 -144.11,-765.74 -96.48,-152.67 -217.4,-228.38 -362.71,-228.38z"/>
 </g>
</svg>
